<svg width="48" height="32" viewBox="0 0 48 32" fill="none" xmlns="http://www.w3.org/2000/svg">
<path d="M48 7.27537L41.7215 0.996918L37.4702 5.24823L33.2189 0.996918L20.0209 14.1949L14.7811 8.95508L10.5298 13.2064L6.27845 8.95508L0 15.2335L15.7696 31.0031L20.0209 26.7518L24.2722 31.0031L48 7.27537ZM14.7811 13.0091L17.9938 16.2218L15.7695 18.4462L12.5566 15.2334L14.7811 13.0091ZM4.0539 15.2335L6.27845 13.009L15.7696 22.5001L33.2188 5.05082L35.4434 7.27527L15.7696 26.9491L4.0539 15.2335ZM41.7215 5.05082L43.9461 7.27537L24.2723 26.9491L22.0479 24.7247L41.7215 5.05082Z" fill="#003084"/>
</svg>
