<svg width="124" height="78" viewBox="0 0 124 78" fill="none" xmlns="http://www.w3.org/2000/svg">
<path d="M124 16.4614L107.781 0.24202L96.7981 11.2246L85.8156 0.24202L51.7206 34.3368L38.1844 20.8006L27.2019 31.7832L16.2193 20.8006L0 37.0199L40.738 77.758L51.7206 66.7754L62.7031 77.758L124 16.4614ZM38.1844 31.2734L46.484 39.573L40.7378 45.3193L32.4379 37.0197L38.1844 31.2734ZM10.4726 37.0199L16.2193 31.2732L40.738 55.7919L85.8153 10.7146L91.5621 16.4611L40.738 67.2851L10.4726 37.0199ZM107.781 10.7146L113.527 16.4614L62.7034 67.2851L56.9571 61.5389L107.781 10.7146Z" fill="#003084"/>
</svg>
