<svg width="15" height="15" viewBox="0 0 15 15" fill="none" xmlns="http://www.w3.org/2000/svg">
<path fill-rule="evenodd" clip-rule="evenodd" d="M1.74154 2.85898C1.37674 3.36022 1.40224 4.00235 1.79395 4.86253C1.91508 5.12944 1.7975 5.44378 1.53045 5.56555C1.26269 5.68661 0.948892 5.5698 0.827055 5.30218C0.269583 4.07952 0.280208 3.05863 0.858223 2.27066C1.07356 1.9103 2.42722 0.34356 3.58963 0.419313C3.95513 0.449756 4.28948 0.619668 4.60328 0.925512C4.93762 1.25189 6.34157 2.95951 6.4542 3.49969C6.57522 4.08043 6.3144 4.53395 6.1239 4.86521L6.1234 4.86607C5.93569 5.19245 5.87052 5.33192 5.93498 5.5082C6.40886 6.66715 7.1413 7.61442 8.10537 8.30256C8.34408 8.47389 8.39862 8.80522 8.22791 9.04381C8.12449 9.18823 7.96157 9.26611 7.79582 9.26611C7.68815 9.26611 7.58048 9.23354 7.48697 9.16699C6.35786 8.3592 5.50217 7.25689 4.94328 5.8898C4.69749 5.21369 4.98933 4.70678 5.20254 4.33651C5.36263 4.05899 5.45117 3.89332 5.41363 3.71633C5.31446 3.46075 4.27885 2.09366 3.86092 1.68658C3.732 1.55985 3.61088 1.48552 3.52092 1.47844C3.01374 1.4664 1.97671 2.46889 1.74154 2.85898ZM11.5004 8.54363C12.043 8.6562 13.7494 10.0594 14.076 10.3928C14.3834 10.7072 14.5534 11.0421 14.5825 11.3868C14.6285 12.6916 12.881 14.0552 12.6805 14.1699C12.2994 14.4446 11.8525 14.5833 11.3495 14.5833C10.8494 14.5833 10.2941 14.446 9.69271 14.1656C7.37994 13.2056 3.8821 10.0927 1.9143 7.23601C1.74784 6.99459 1.80876 6.66397 2.05031 6.49759C2.29256 6.33335 2.62336 6.39281 2.78912 6.63423C4.62729 9.30257 7.98488 12.3065 10.1213 13.1943C10.9855 13.5957 11.6286 13.6205 12.1075 13.2771C12.4808 13.0513 13.5412 11.9978 13.5221 11.4498C13.5157 11.3854 13.442 11.2644 13.3166 11.1362C12.9086 10.7185 11.5394 9.68275 11.2532 9.57514C11.0272 9.527 10.7921 9.66435 10.4336 9.89019L10.2523 10.0028C10.0008 10.1536 9.67429 10.0736 9.52271 9.82152C9.37183 9.57089 9.45258 9.24452 9.70404 9.09301L9.86767 8.99177C10.2644 8.74186 10.8119 8.40062 11.5004 8.54363Z" fill="#200E32"/>
</svg>
