<svg width="57" height="67" viewBox="0 0 57 67" fill="none" xmlns="http://www.w3.org/2000/svg">
<path d="M9.64062 4.65625C9.64132 4.06801 9.87531 3.50407 10.2913 3.08813C10.7072 2.67218 11.2711 2.4382 11.8594 2.4375H45.1406C45.7289 2.4382 46.2928 2.67218 46.7087 3.08813C47.1247 3.50407 47.3587 4.06801 47.3594 4.65625V14.6406H49.5781V4.65625C49.5768 3.47976 49.1089 2.35183 48.277 1.51992C47.445 0.688017 46.3171 0.220071 45.1406 0.21875H11.8594C10.6829 0.220071 9.55495 0.688017 8.72305 1.51992C7.89114 2.35183 7.4232 3.47976 7.42188 4.65625V7.98438H9.64062V4.65625Z" fill="#003084"/>
<path d="M47.3594 62.3438C47.3587 62.932 47.1247 63.4959 46.7087 63.9119C46.2928 64.3278 45.7289 64.5618 45.1406 64.5625H11.8594C11.2711 64.5618 10.7072 64.3278 10.2913 63.9119C9.87531 63.4959 9.64132 62.932 9.64062 62.3438V27.9531H7.42188V62.3438C7.4232 63.5202 7.89114 64.6482 8.72305 65.4801C9.55495 66.312 10.6829 66.7799 11.8594 66.7812H45.1406C46.3171 66.7799 47.445 66.312 48.277 65.4801C49.1089 64.6482 49.5768 63.5202 49.5781 62.3438V34.6094H47.3594V62.3438Z" fill="#003084"/>
<path d="M25.1719 4.65625H27.3906V6.875H25.1719V4.65625Z" fill="#003084"/>
<path d="M29.6094 4.65625H31.8281V6.875H29.6094V4.65625Z" fill="#003084"/>
<path d="M27.3906 60.125H29.6094V62.3438H27.3906V60.125Z" fill="#003084"/>
<path d="M14.403 27.6282C14.506 27.7312 14.6283 27.813 14.7629 27.8687C14.8975 27.9245 15.0418 27.9532 15.1875 27.9532C15.3332 27.9532 15.4775 27.9245 15.6121 27.8687C15.7467 27.813 15.869 27.7312 15.972 27.6282L17.8657 25.7344H20.7344V23.5156H17.4062C17.2606 23.5156 17.1163 23.5443 16.9817 23.6001C16.8471 23.6558 16.7248 23.7375 16.6218 23.8405L15.1875 25.275L13.7532 23.8405C13.6502 23.7375 13.5279 23.6558 13.3933 23.6001C13.2587 23.5443 13.1144 23.5156 12.9688 23.5156H2.98438V12.4219H31.8281V14.6406H34.0469V11.3125C34.0469 11.0183 33.93 10.7361 33.7219 10.5281C33.5139 10.32 33.2317 10.2031 32.9375 10.2031H1.875C1.58078 10.2031 1.2986 10.32 1.09055 10.5281C0.882505 10.7361 0.765625 11.0183 0.765625 11.3125V24.625C0.765625 24.9192 0.882505 25.2014 1.09055 25.4094C1.2986 25.6175 1.58078 25.7344 1.875 25.7344H12.5093L14.403 27.6282Z" fill="#FFBA00"/>
<path d="M55.125 16.8594H24.0625C23.7683 16.8594 23.4861 16.9763 23.2781 17.1843C23.07 17.3924 22.9531 17.6745 22.9531 17.9688V31.2812C22.9531 31.5755 23.07 31.8576 23.2781 32.0657C23.4861 32.2737 23.7683 32.3906 24.0625 32.3906H38.025L39.9187 34.2845C40.0217 34.3875 40.144 34.4692 40.2786 34.525C40.4132 34.5807 40.5574 34.6094 40.7031 34.6094C40.8488 34.6094 40.9931 34.5807 41.1277 34.525C41.2623 34.4692 41.3846 34.3875 41.4876 34.2845L43.3813 32.3906H55.125C55.4192 32.3906 55.7014 32.2737 55.9094 32.0657C56.1175 31.8576 56.2344 31.5755 56.2344 31.2812V17.9688C56.2344 17.6745 56.1175 17.3924 55.9094 17.1843C55.7014 16.9763 55.4192 16.8594 55.125 16.8594ZM54.0156 30.1719H42.9219C42.7762 30.1719 42.6319 30.2006 42.4973 30.2563C42.3627 30.3121 42.2404 30.3938 42.1374 30.4968L40.7031 31.9312L39.2688 30.4968C39.1658 30.3938 39.0435 30.3121 38.9089 30.2563C38.7743 30.2006 38.6301 30.1719 38.4844 30.1719H25.1719V19.0781H54.0156V30.1719Z" fill="#003084"/>
<path d="M29.6094 21.2969H31.8281V23.5156H29.6094V21.2969Z" fill="#003084"/>
<path d="M34.0469 21.2969H51.7969V23.5156H34.0469V21.2969Z" fill="#003084"/>
<path d="M27.3906 25.7344H51.7969V27.9531H27.3906V25.7344Z" fill="#003084"/>
<path d="M7.42188 14.6406H9.64062V16.8594H7.42188V14.6406Z" fill="#003084"/>
<path d="M11.8594 14.6406H20.7344V16.8594H11.8594V14.6406Z" fill="#003084"/>
<path d="M5.20312 19.0781H20.7344V21.2969H5.20312V19.0781Z" fill="#003084"/>
<path d="M36.2656 53.4686V52.3593H37.375C38.2574 52.3582 39.1033 52.0073 39.7272 51.3833C40.3511 50.7594 40.7021 49.9135 40.7031 49.0311V46.8124C40.7021 45.93 40.3511 45.0841 39.7272 44.4602C39.1033 43.8363 38.2574 43.4853 37.375 43.4843H36.1851C35.9182 41.6362 34.9943 39.9461 33.5827 38.7238C32.1712 37.5014 30.3664 36.8286 28.4992 36.8286C26.6319 36.8286 24.8272 37.5014 23.4156 38.7238C22.004 39.9461 21.0802 41.6362 20.8133 43.4843H19.625C18.7426 43.4853 17.8967 43.8363 17.2728 44.4602C16.6489 45.0841 16.2979 45.93 16.2969 46.8124V49.0311C16.2979 49.9135 16.6489 50.7594 17.2728 51.3833C17.8967 52.0073 18.7426 52.3582 19.625 52.3593H21.8438C22.138 52.3593 22.4201 52.2424 22.6282 52.0343C22.8362 51.8263 22.9531 51.5441 22.9531 51.2499V44.5936C22.9531 43.1225 23.5375 41.7116 24.5778 40.6714C25.618 39.6312 27.0289 39.0468 28.5 39.0468C29.9711 39.0468 31.382 39.6312 32.4222 40.6714C33.4625 41.7116 34.0469 43.1225 34.0469 44.5936V53.4686C34.0465 53.7628 33.9296 54.0447 33.7216 54.2527C33.5136 54.4607 33.2316 54.5777 32.9375 54.578H28.5V56.7968H32.9375C33.8199 56.7957 34.6658 56.4448 35.2897 55.8208C35.9136 55.1969 36.2646 54.351 36.2656 53.4686ZM20.7344 50.1405H19.625C19.3309 50.1402 19.0489 50.0232 18.8409 49.8152C18.6329 49.6072 18.516 49.3253 18.5156 49.0311V46.8124C18.516 46.5183 18.6329 46.2363 18.8409 46.0283C19.0489 45.8203 19.3309 45.7033 19.625 45.703H20.7344V50.1405ZM38.4844 46.8124V49.0311C38.484 49.3253 38.3671 49.6072 38.1591 49.8152C37.9511 50.0232 37.6691 50.1402 37.375 50.1405H36.2656V45.703H37.375C37.6691 45.7033 37.9511 45.8203 38.1591 46.0283C38.3671 46.2363 38.484 46.5183 38.4844 46.8124Z" fill="#FFBA00"/>
</svg>
