<svg width="77" height="63" viewBox="0 0 77 63" fill="none" xmlns="http://www.w3.org/2000/svg">
<path d="M48.9332 55.4647C60.6079 55.4647 70.1059 45.9667 70.1059 34.292C70.1059 22.6173 60.6079 13.1191 48.9332 13.1191C37.2585 13.1191 27.7604 22.6171 27.7604 34.292C27.7604 45.9668 37.2585 55.4647 48.9332 55.4647ZM33.1688 33.1576H30.0638C30.3232 28.7979 32.0664 24.8316 34.7948 21.7575L36.984 23.9468C37.2054 24.1683 37.4958 24.279 37.786 24.279C38.0762 24.279 38.3666 24.1683 38.588 23.9468C39.031 23.5038 39.031 22.7856 38.588 22.3428L36.3988 20.1536C39.4729 17.4252 43.4391 15.6819 47.7988 15.4226V18.5275C47.7988 19.1539 48.3065 19.6618 48.9331 19.6618C49.5596 19.6618 50.0673 19.1539 50.0673 18.5275V15.4226C54.427 15.6819 58.3933 17.4252 61.4672 20.1536L59.278 22.3428C58.835 22.7858 58.835 23.504 59.278 23.9468C59.4995 24.1682 59.7899 24.279 60.0801 24.279C60.3703 24.279 60.6607 24.1683 60.8823 23.9468L63.0713 21.7575C65.7996 24.8316 67.543 28.7977 67.8022 33.1574H64.6972C64.0707 33.1574 63.563 33.6653 63.563 34.2917C63.563 34.9181 64.0707 35.4259 64.6972 35.4259H67.8022C67.5428 39.7857 65.7996 43.7519 63.0712 46.8258L60.8821 44.6367C60.439 44.1938 59.7209 44.1938 59.278 44.6367C58.835 45.0797 58.835 45.7979 59.278 46.2407L61.4672 48.43C58.3931 51.1583 54.427 52.9016 50.0673 53.161V50.056C50.0673 49.4296 49.5596 48.9218 48.9331 48.9218C48.3065 48.9218 47.7988 49.4296 47.7988 50.056V53.161C43.4389 52.9016 39.4729 51.1583 36.3988 48.43L38.588 46.2409C39.031 45.7979 39.031 45.0797 38.588 44.6369C38.1449 44.1938 37.4269 44.1939 36.984 44.6369L34.7948 46.826C32.0664 43.7519 30.3232 39.7858 30.0638 35.4259H33.1688C33.7952 35.4259 34.303 34.9181 34.303 34.2917C34.303 33.6654 33.7952 33.1576 33.1688 33.1576Z" fill="#003084"/>
<path d="M62.6861 56.1225C58.575 58.7181 53.8194 60.09 48.9332 60.09C34.708 60.09 23.1349 48.5169 23.1349 34.2917C23.1349 28.5326 24.9905 23.0855 28.501 18.5391C28.8837 18.0434 28.7922 17.3311 28.2963 16.9482C27.8006 16.5654 27.0883 16.6569 26.7054 17.1528C22.8854 22.0998 20.8664 28.0263 20.8664 34.2917C20.8664 49.7677 33.4571 62.3584 48.9332 62.3584C54.2487 62.3584 59.4233 60.8653 63.8972 58.0406C64.427 57.7062 64.5852 57.0057 64.2508 56.476C63.9163 55.9463 63.2159 55.7883 62.6861 56.1225Z" fill="#003084"/>
<path d="M55.7738 7.06964V2.7701C55.7738 1.59624 54.8187 0.641357 53.645 0.641357H44.2211C43.0473 0.641357 42.0924 1.59624 42.0924 2.7701V7.06843C37.5819 8.19844 33.3971 10.4403 29.9141 13.6513C29.4536 14.0759 29.4244 14.7934 29.8489 15.254C30.2736 15.7145 30.9912 15.7439 31.4517 15.3192C36.2262 10.9176 42.4346 8.4935 48.9331 8.4935C63.1583 8.4935 74.7314 20.0666 74.7314 34.2918C74.7314 41.5934 71.6164 48.5849 66.1852 53.4731C65.7197 53.8921 65.6819 54.6093 66.101 55.0749C66.3248 55.3238 66.6339 55.4503 66.9443 55.4503C67.2147 55.4503 67.486 55.3542 67.7029 55.1591C73.6112 49.8414 76.9999 42.2354 76.9999 34.2916C77 21.1746 67.9544 10.1318 55.7738 7.06964ZM44.361 6.59719V2.90984H53.5054V6.59946C52.017 6.35447 50.49 6.22501 48.9334 6.22501C47.3898 6.22501 45.8614 6.35084 44.361 6.59719Z" fill="#003084"/>
<path d="M48.9332 35.0863C49.3588 35.0863 49.729 34.8517 49.923 34.5051L53.8357 30.5924C54.2787 30.1494 54.2787 29.4312 53.8357 28.9883C53.3928 28.5453 52.6747 28.5453 52.2314 28.9883L50.0673 31.1522V25.6286C50.0673 25.0022 49.5596 24.4944 48.9331 24.4944C48.3065 24.4944 47.7988 25.0022 47.7988 25.6286V33.9517C47.799 34.5784 48.3067 35.0863 48.9332 35.0863Z" fill="#FFBA00"/>
<path d="M16.7377 34.5478C16.7377 33.9214 16.2298 33.4136 15.6034 33.4136H1.13424C0.507839 33.4136 0 33.9214 0 34.5478C0 35.1742 0.507839 35.6821 1.13424 35.6821H15.6034C16.2298 35.6821 16.7377 35.1744 16.7377 34.5478Z" fill="#FFBA00"/>
<path d="M5.6582 29.0766H17.1159C17.7423 29.0766 18.2501 28.5688 18.2501 27.9423C18.2501 27.3159 17.7423 26.8081 17.1159 26.8081H5.6582C5.0318 26.8081 4.52396 27.3159 4.52396 27.9423C4.52396 28.5688 5.03164 29.0766 5.6582 29.0766Z" fill="#FFBA00"/>
<path d="M18.6281 20.2024H9.23153C8.60513 20.2024 8.09729 20.7102 8.09729 21.3366C8.09729 21.963 8.60513 22.4709 9.23153 22.4709H18.6281C19.2545 22.4709 19.7623 21.963 19.7623 21.3366C19.7623 20.7101 19.2545 20.2024 18.6281 20.2024Z" fill="#FFBA00"/>
<path d="M18.25 40.6413C18.25 40.0149 17.7421 39.5071 17.1157 39.5071H5.6582C5.03179 39.5071 4.52396 40.0149 4.52396 40.6413C4.52396 41.2677 5.03179 41.7756 5.6582 41.7756H17.1159C17.7421 41.7756 18.25 41.2677 18.25 40.6413Z" fill="#FFBA00"/>
<path d="M18.6281 46.1128H9.23153C8.60513 46.1128 8.09729 46.6206 8.09729 47.247C8.09729 47.8734 8.60513 48.3813 9.23153 48.3813H18.6281C19.2545 48.3813 19.7623 47.8734 19.7623 47.247C19.7623 46.6206 19.2545 46.1128 18.6281 46.1128Z" fill="#FFBA00"/>
</svg>
