<svg width="64" height="64" viewBox="0 0 64 64" fill="none" xmlns="http://www.w3.org/2000/svg">
<path d="M50.1333 16V36.2667H58.6667V9.59998H52.2667C51.0901 9.59634 50.137 8.64321 50.1333 7.46665V1.06665H18.1333C15.7771 1.06665 13.8667 2.97707 13.8667 5.33332V7.46665H41.6L50.1333 16Z" fill="white"/>
<path d="M48.0008 36.7666C47.0999 36.7698 46.3701 37.4995 46.3667 38.4004C46.3667 38.4007 46.3667 38.4011 46.3667 38.4015L46.3667 40.5312C46.37 40.9353 46.3181 41.338 46.2114 41.7283C45.6699 43.8318 43.7719 45.3017 41.5996 45.2999M48.0008 36.7666L41.6 44.7999M48.0008 36.7666H50.1334H62.4333V58.6666C62.4333 60.7467 60.7468 62.4333 58.6667 62.4333H5.33335C3.25324 62.4333 1.56668 60.7467 1.56668 58.6666V36.7666H15.9992M48.0008 36.7666H15.9992M41.5996 45.2999L41.6 44.7999M41.5996 45.2999H41.6V44.7999M41.5996 45.2999H22.4004M41.6 44.7999H22.4M22.4004 45.2999L22.4 44.7999M22.4004 45.2999C20.2281 45.3017 18.3301 43.8318 17.7886 41.7282C17.6819 41.3379 17.6301 40.9352 17.6333 40.5312L17.6334 38.4015C17.6334 38.4013 17.6333 38.4011 17.6333 38.4009C17.6302 37.4998 16.9003 36.7698 15.9992 36.7666M22.4004 45.2999H22.4V44.7999M22.4 44.7999L15.9992 36.7666M23.4667 53.8333H40.5333C41.9876 53.8333 43.1667 52.6542 43.1667 51.1999C43.1667 49.7457 41.9876 48.5666 40.5333 48.5666H23.4667C22.0124 48.5666 20.8333 49.7457 20.8333 51.1999C20.8333 52.6542 22.0124 53.8333 23.4667 53.8333ZM58.1667 56.5333C58.1667 57.4353 57.4353 58.1666 56.5334 58.1666V58.6666V59.1666C57.9876 59.1666 59.1667 57.9875 59.1667 56.5333H58.6667H58.1667Z" stroke="#FFBA00"/>
<path d="M40.5333 49.0667H23.4667C22.2886 49.0667 21.3333 50.0219 21.3333 51.2C21.3333 52.3781 22.2886 53.3333 23.4667 53.3333H40.5333C41.7115 53.3333 42.6667 52.3781 42.6667 51.2C42.6667 50.0219 41.7115 49.0667 40.5333 49.0667Z" fill="#FFBA00"/>
<path d="M41.6 13.8666C41.6037 15.0431 42.5568 15.9962 43.7333 15.9999H50.1333L41.6 7.46655V13.8666Z" fill="#FFBA00"/>
<path d="M52.2667 9.59998H58.6667L50.1334 1.06665V7.46665C50.137 8.64321 51.0901 9.59634 52.2667 9.59998Z" fill="#FFBA00"/>
<path d="M62.9333 35.2H59.7333V9.6C59.7333 9.57656 59.7214 9.55729 59.7203 9.53385C59.7141 9.43802 59.6948 9.34323 59.663 9.25208C59.6531 9.21823 59.6411 9.1849 59.6276 9.15208C59.5776 9.0401 59.5089 8.9375 59.424 8.84896L50.8906 0.315625C50.8021 0.230729 50.7 0.161979 50.5875 0.111979C50.5563 0.0984375 50.5234 0.0869792 50.4906 0.0765625C50.3979 0.04375 50.301 0.0244792 50.2026 0.0192708C50.1802 0.0114583 50.1568 0.00520833 50.1333 0H18.1333C15.1891 0.00364584 12.8036 2.38906 12.8 5.33333V6.4H9.6C6.65573 6.40365 4.27031 8.78906 4.26667 11.7333V35.2H1.06667C0.477604 35.2 0 35.6776 0 36.2667V58.6667C0.00364584 61.6109 2.38906 63.9964 5.33333 64H58.6667C61.6109 63.9964 63.9964 61.6109 64 58.6667V36.2667C64 35.6776 63.5224 35.2 62.9333 35.2ZM56.0917 8.53333H52.2667C51.6776 8.53333 51.2 8.05573 51.2 7.46667V3.64167L56.0917 8.53333ZM14.9333 5.33333C14.9333 3.56615 16.3661 2.13333 18.1333 2.13333H49.0667V7.46667C49.0667 9.23385 50.4995 10.6667 52.2667 10.6667H57.6V35.2H51.2V16C51.2 15.9766 51.188 15.9573 51.187 15.9339C51.1807 15.838 51.1615 15.7432 51.1297 15.6521C51.1198 15.6182 51.1078 15.5849 51.0943 15.5521C51.0443 15.4401 50.9755 15.3375 50.8906 15.249L42.3573 6.71563C42.2688 6.63021 42.1656 6.56094 42.0531 6.51094C42.0229 6.49844 41.9922 6.4875 41.9604 6.47813C41.8656 6.44375 41.7661 6.42344 41.6651 6.41823C41.6375 6.41042 41.6203 6.4 41.6 6.4H14.9333V5.33333ZM42.6667 10.0417L47.5583 14.9333H43.7333C43.1443 14.9333 42.6667 14.4557 42.6667 13.8667V10.0417ZM6.4 11.7333C6.4 9.96615 7.83281 8.53333 9.6 8.53333H40.5333V13.8667C40.5333 15.6339 41.9661 17.0667 43.7333 17.0667H49.0667V35.2H48C46.2328 35.2 44.8 36.6328 44.8 38.4V40.5333C44.8026 40.8052 44.7667 41.076 44.6932 41.3375C44.3318 42.75 43.0578 43.7365 41.6 43.7333H22.4C20.9328 43.7344 19.6536 42.7349 19.299 41.3109C19.2302 41.0578 19.1964 40.7958 19.2 40.5333V38.4C19.2 36.6328 17.7672 35.2 16 35.2H6.4V11.7333ZM61.8667 58.6667C61.8667 60.4339 60.4339 61.8667 58.6667 61.8667H5.33333C3.56615 61.8667 2.13333 60.4339 2.13333 58.6667V37.3333H16C16.5891 37.3333 17.0667 37.8109 17.0667 38.4V40.5333C17.0625 40.9823 17.1203 41.4292 17.2385 41.8625C17.8391 44.2214 19.9656 45.8714 22.4 45.8667H41.6C44.025 45.8734 46.1469 44.2365 46.7552 41.8891C46.8766 41.4474 46.9365 40.9911 46.9333 40.5333V38.4C46.9333 37.8109 47.4109 37.3333 48 37.3333H61.8667V58.6667Z" fill="#003084"/>
<path d="M40.5333 48H23.4667C21.6995 48 20.2667 49.4328 20.2667 51.2C20.2667 52.9672 21.6995 54.4 23.4667 54.4H40.5333C42.3005 54.4 43.7333 52.9672 43.7333 51.2C43.7333 49.4328 42.3005 48 40.5333 48ZM40.5333 52.2667H23.4667C22.8776 52.2667 22.4 51.7891 22.4 51.2C22.4 50.6109 22.8776 50.1333 23.4667 50.1333H40.5333C41.1224 50.1333 41.6 50.6109 41.6 51.2C41.6 51.7891 41.1224 52.2667 40.5333 52.2667Z" fill="#003084"/>
<path d="M20.2667 14.9334H35.2C35.7891 14.9334 36.2667 14.4558 36.2667 13.8667C36.2667 13.2777 35.7891 12.8 35.2 12.8H20.2667C19.6776 12.8 19.2 13.2777 19.2 13.8667C19.2 14.4558 19.6776 14.9334 20.2667 14.9334Z" fill="#003084"/>
<path d="M12.8 20.2666C12.8 20.8557 13.2776 21.3333 13.8667 21.3333H41.6C42.1891 21.3333 42.6667 20.8557 42.6667 20.2666C42.6667 19.6776 42.1891 19.2 41.6 19.2H13.8667C13.2776 19.2 12.8 19.6776 12.8 20.2666Z" fill="#003084"/>
<path d="M41.6 25.6001H13.8667C13.2776 25.6001 12.8 26.0777 12.8 26.6668C12.8 27.2558 13.2776 27.7334 13.8667 27.7334H41.6C42.1891 27.7334 42.6667 27.2558 42.6667 26.6668C42.6667 26.0777 42.1891 25.6001 41.6 25.6001Z" fill="#003084"/>
<path d="M42.6667 33.0667C42.6667 32.4776 42.1891 32 41.6 32H13.8667C13.2776 32 12.8 32.4776 12.8 33.0667C12.8 33.6557 13.2776 34.1333 13.8667 34.1333H41.6C42.1891 34.1333 42.6667 33.6557 42.6667 33.0667Z" fill="#003084"/>
<path d="M41.6 38.3999H22.4C21.8109 38.3999 21.3333 38.8775 21.3333 39.4666C21.3333 40.0556 21.8109 40.5332 22.4 40.5332H41.6C42.1891 40.5332 42.6667 40.0556 42.6667 39.4666C42.6667 38.8775 42.1891 38.3999 41.6 38.3999Z" fill="#003084"/>
<path d="M14.9333 11.7334C14.9333 11.1444 14.4557 10.6667 13.8667 10.6667H11.7333C9.96614 10.6667 8.53333 12.0996 8.53333 13.8667V16.0001C8.53333 16.5891 9.01093 17.0667 9.59999 17.0667C10.1891 17.0667 10.6667 16.5891 10.6667 16.0001V13.8667C10.6667 13.2777 11.1443 12.8001 11.7333 12.8001H13.8667C14.4557 12.8001 14.9333 12.3225 14.9333 11.7334Z" fill="#003084"/>
<path d="M57.6 52.2666V56.5333C57.6 57.1223 57.1224 57.6 56.5333 57.6H52.2667C51.6776 57.6 51.2 58.0776 51.2 58.6666C51.2 59.2557 51.6776 59.7333 52.2667 59.7333H56.5333C58.3005 59.7333 59.7333 58.3005 59.7333 56.5333V52.2666C59.7333 51.6776 59.2557 51.2 58.6667 51.2C58.0776 51.2 57.6 51.6776 57.6 52.2666Z" fill="#003084"/>
</svg>
