<svg width="64" height="64" viewBox="0 0 64 64" fill="none" xmlns="http://www.w3.org/2000/svg">
<path d="M54.6275 9.3725C48.5834 3.3285 40.5475 0 32 0C25.4963 0 19.2344 1.94187 13.8915 5.6155C13.3226 6.00663 13.1786 6.78488 13.5697 7.35375C13.961 7.9225 14.739 8.0665 15.308 7.6755C20.2323 4.28963 26.0042 2.5 32 2.5C48.2664 2.5 61.5 15.7336 61.5 32C61.5 48.2664 48.2664 61.5 32 61.5C15.7336 61.5 2.5 48.2664 2.5 32C2.5 26.0035 4.2895 20.2318 7.67487 15.3089C8.066 14.74 7.922 13.9618 7.35325 13.5706C6.78438 13.1796 6.00625 13.3234 5.615 13.8923C1.94162 19.2339 0 25.4955 0 32C0 40.5475 3.3285 48.5834 9.3725 54.6275C15.4166 60.6715 23.4525 64 32 64C40.5475 64 48.5834 60.6715 54.6275 54.6275C60.6715 48.5834 64 40.5475 64 32C64 23.4525 60.6715 15.4166 54.6275 9.3725Z" fill="#003084"/>
<path d="M32 57.75C46.1986 57.75 57.75 46.1986 57.75 32C57.75 29.0496 57.2498 26.2142 56.3321 23.5724C56.3295 23.5655 56.3275 23.5584 56.3247 23.5516C52.8204 13.4902 43.2405 6.25 32 6.25C17.8015 6.25 6.25 17.8014 6.25 32C6.25 46.1986 17.8015 57.75 32 57.75ZM55.25 32C55.25 32.5981 55.2272 33.1911 55.1826 33.778C53.8705 33.8465 52.5914 34.0414 51.3564 34.3491C51.7621 30.9263 51.2516 27.4146 49.8944 24.2574C51.3356 24.5036 52.7714 24.7796 54.2001 25.0851C54.8823 27.2704 55.25 29.593 55.25 32ZM46.8855 23.7873C48.7856 27.2332 49.4345 31.3327 48.6955 35.2127C42.9897 37.5154 38.5655 42.3445 36.8159 48.3069C33.6875 49.2277 30.3123 49.2277 27.184 48.3069C25.4345 42.3446 21.0103 37.5154 15.3045 35.2129C14.5655 31.3333 15.2147 27.2329 17.1144 23.7874C22.0437 23.0899 27.0247 22.7356 32 22.7356C36.9751 22.7356 41.956 23.0898 46.8855 23.7873ZM12.6435 34.3491C11.4085 34.0415 10.1295 33.8465 8.81738 33.778C8.77275 33.1911 8.75 32.5981 8.75 32C8.75 29.593 9.11775 27.2704 9.79988 25.0851C11.2286 24.7796 12.6643 24.5036 14.1056 24.2574C12.7486 27.4145 12.2379 30.9265 12.6435 34.3491ZM9.15125 36.3051C18.2861 37.0219 25.5 44.6841 25.5 54C25.5 54.1074 25.498 54.2151 25.496 54.3229C17.1771 51.8951 10.7734 44.9336 9.15125 36.3051ZM27.979 54.901C27.9923 54.6001 28 54.2991 28 53.9999C28 52.9948 27.9252 52.0069 27.7831 51.0406C29.168 51.345 30.5837 51.4979 32 51.4979C33.4159 51.4979 34.8319 51.345 36.2169 51.0406C36.0747 52.0069 36 52.9948 36 54C36 54.2993 36.0077 54.6003 36.021 54.9011C34.7145 55.1298 33.3711 55.25 32 55.25C30.629 55.25 29.2856 55.1297 27.979 54.901ZM38.504 54.3229C38.502 54.2151 38.5 54.1073 38.5 54C38.5 44.6842 45.714 37.022 54.8489 36.3052C53.2266 44.9336 46.8229 51.8951 38.504 54.3229ZM32 8.75C41.3647 8.75 49.453 14.316 53.1333 22.313C46.183 20.9355 39.0856 20.2358 31.9999 20.2358C24.9141 20.2358 17.8166 20.9356 10.8666 22.3131C14.547 14.3159 22.6353 8.75 32 8.75Z" fill="#003084"/>
<path d="M25.75 32C25.75 35.4462 28.5538 38.25 32 38.25C35.4462 38.25 38.25 35.4462 38.25 32C38.25 28.5538 35.4462 25.75 32 25.75C28.5538 25.75 25.75 28.5538 25.75 32ZM32 28.25C34.0677 28.25 35.75 29.9323 35.75 32C35.75 34.0677 34.0677 35.75 32 35.75C29.9323 35.75 28.25 34.0677 28.25 32C28.25 29.9323 29.9323 28.25 32 28.25Z" fill="#FFBA00"/>
<path d="M10.256 11.5066C10.5761 11.5066 10.8962 11.3843 11.1404 11.1402C11.6285 10.6521 11.6285 9.86057 11.1404 9.37244C10.6522 8.88432 9.86087 8.88432 9.37262 9.37244L9.372 9.37307C8.88387 9.86119 8.88412 10.6523 9.37225 11.1404C9.61625 11.3847 9.93612 11.5066 10.256 11.5066Z" fill="#FFBA00"/>
</svg>
