<svg width="64" height="56" viewBox="0 0 64 56" fill="none" xmlns="http://www.w3.org/2000/svg">
<path d="M17.8605 50.1218C20.0284 50.1218 21.7921 48.358 21.7921 46.19C21.7921 44.022 20.0284 42.2583 17.8605 42.2583C15.6925 42.2583 13.9289 44.022 13.9289 46.19C13.9289 48.358 15.6925 50.1218 17.8605 50.1218ZM17.8605 44.1335C18.9944 44.1335 19.917 45.0562 19.917 46.1902C19.917 47.3242 18.9945 48.2468 17.8605 48.2468C16.7265 48.2468 15.804 47.3242 15.804 46.1902C15.804 45.0562 16.7265 44.1335 17.8605 44.1335Z" fill="#FFBA00"/>
<path d="M60.9925 30.2398L50.6393 28.9057L45.6286 20.4448C43.489 16.8268 42.3887 16.2408 40.5817 16.2357L37.3047 16.2304V14.0643H42.4085C43.4921 14.0643 44.3736 13.1828 44.3736 12.0992C44.3736 9.65465 42.6575 7.5639 39.4109 6.05315C36.9406 4.90365 34.1672 4.38653 32.9869 4.38653H26.1362V3.58078C26.1362 2.10253 24.932 0.899902 23.4517 0.899902H11.2627C9.7825 0.899902 8.57825 2.10253 8.57825 3.58078V4.47865C6.35938 4.91678 4.68062 6.87828 4.68062 9.2254V12.0992C4.68062 13.1828 5.56063 14.0643 6.64225 14.0643H9.2445V16.185L7.72925 16.1825C7.72612 16.1825 7.72312 16.1825 7.71987 16.1825C6.89187 16.1825 6.11125 16.5063 5.521 17.0948C4.9265 17.6875 4.59912 18.4742 4.59912 19.3099V21.6132V24.428H3.23712C1.45225 24.4279 0 25.8802 0 27.6652V38.8233C0 40.6083 1.45225 42.0605 3.23712 42.0605H4.59912V44.7267C4.59912 46.4511 6.002 47.854 7.72638 47.854H9.84713C10.618 51.5714 13.9179 54.3739 17.8604 54.3739C21.8027 54.3739 25.1026 51.5715 25.8735 47.854H31.8316C32.3494 47.854 32.7692 47.4343 32.7692 46.9164C32.7692 46.3985 32.3495 45.9788 31.8316 45.9788H26.0386C25.9259 41.5637 22.302 38.006 17.8604 38.006C13.4187 38.006 9.79475 41.5637 9.68213 45.9788H7.7265C7.036 45.9788 6.47437 45.417 6.47437 44.7265V41.1229V30.7145H9.41325C10.6082 30.7145 11.5741 30.1167 12.2841 28.9374L15.4584 23.7337C15.844 23.0997 15.8709 22.3903 15.5319 21.7873C15.1637 21.1325 14.3773 20.6753 13.6191 20.6753H6.47437V19.3097C6.47437 18.9759 6.606 18.6608 6.84513 18.4224C7.08125 18.187 7.39187 18.0574 7.72137 18.0574H7.725H40.569C41.3971 18.0598 41.9761 18.1168 43.5747 20.6753H21.2726C20.9804 20.6753 19.9769 20.7649 19.3336 21.9189L16.1974 27.5572C15.8109 28.2535 15.8127 29.0327 16.2026 29.6948C16.5673 30.3142 17.2137 30.7144 17.8499 30.7144H50.0055L60.7514 32.099C61.4351 32.1883 62.125 32.6137 62.125 33.3627V33.52H58.4313C57.5568 33.52 56.8452 34.2315 56.8452 35.106V36.4595C56.8452 38.0785 58.1624 39.3957 59.7812 39.3957H62.1247V44.7264C62.1247 45.4169 61.563 45.9787 60.8725 45.9787H59.0973C58.6304 41.9063 55.1642 38.7324 50.9689 38.7324C46.7735 38.7324 43.3074 41.9063 42.8406 45.9787H36.7675C36.2498 45.9787 35.8299 46.3984 35.8299 46.9163C35.8299 47.4342 36.2496 47.8539 36.7675 47.8539H42.8408C43.3076 51.9263 46.7738 55.1002 50.969 55.1002C55.1643 55.1002 58.6305 51.9263 59.0974 47.8539H60.8726C62.597 47.8539 64 46.451 64 44.7265V38.4583V34.4578V33.3629C64 31.7553 62.7639 30.471 60.9925 30.2398ZM17.8605 39.8814C21.339 39.8814 24.169 42.7114 24.169 46.1902C24.169 49.6689 21.339 52.4989 17.8605 52.4989C14.382 52.4989 11.552 49.6689 11.552 46.1902C11.552 42.7114 14.3819 39.8814 17.8605 39.8814ZM3.23712 40.1854C2.48612 40.1854 1.87513 39.5744 1.87513 38.8233V27.6652C1.87513 26.914 2.48612 26.303 3.23712 26.303H4.59912V29.777V40.1854H3.23712ZM13.619 22.5507C13.6975 22.5512 13.8442 22.6305 13.8892 22.6933C13.8846 22.7064 13.8753 22.7282 13.8569 22.7584L10.7161 27.9069L10.6776 27.9704C10.4059 28.4218 10.0645 28.8395 9.41325 28.8395H6.47437V25.3655V22.5507H13.619ZM35.4295 16.2273L31.7488 16.2213V14.064H35.4295V16.2273ZM10.4535 3.58065C10.4535 3.1364 10.8166 2.7749 11.2629 2.7749H23.4519C23.8981 2.7749 24.2612 3.1364 24.2612 3.58065V4.3864H10.4535V3.58065ZM6.64225 12.189C6.59788 12.189 6.55587 12.1453 6.55587 12.099V9.22528C6.55587 7.59103 7.88375 6.26153 9.51587 6.26153H32.9868C33.9659 6.26153 36.4331 6.73553 38.6196 7.75303C40.389 8.5764 42.4984 9.99878 42.4984 12.099C42.4984 12.1444 42.4539 12.189 42.4084 12.189H25.2518C24.734 12.189 24.3141 12.6088 24.3141 13.1267C24.3141 13.6445 24.7339 14.0643 25.2518 14.0643H29.8736L29.872 16.197H16.6791V14.0643H20.9254C21.4431 14.0643 21.863 13.6445 21.863 13.1267C21.863 12.6088 21.4433 12.189 20.9254 12.189H6.64225ZM11.1196 14.0642H14.8039V16.1939L11.1196 16.1879V14.0642ZM32.9209 28.8395H17.9062C17.8724 28.8167 17.8201 28.7645 17.7967 28.6972C17.7811 28.6522 17.7714 28.5853 17.8365 28.4682L20.9719 22.8313C21.1169 22.571 21.2639 22.5518 21.2726 22.5505H32.9209V28.8395ZM34.796 22.5507H44.6963L48.4206 28.8395H34.796V22.5507ZM50.9691 53.2252C47.4906 53.2252 44.6606 50.3951 44.6606 46.9164C44.6606 43.4377 47.4906 40.6077 50.9691 40.6077C54.4476 40.6077 57.2776 43.4377 57.2776 46.9164C57.2776 50.3951 54.4476 53.2252 50.9691 53.2252ZM59.7812 37.5208C59.1963 37.5208 58.7204 37.0449 58.7204 36.4599V35.3955H62.1247V37.5209H59.7812V37.5208Z" fill="#003084"/>
<path d="M50.9691 42.9849C48.8013 42.9849 47.0375 44.7486 47.0375 46.9166C47.0375 49.0846 48.8013 50.8484 50.9691 50.8484C53.1371 50.8484 54.9008 49.0846 54.9008 46.9166C54.9008 44.7486 53.137 42.9849 50.9691 42.9849ZM50.9691 48.9732C49.8353 48.9732 48.9126 48.0506 48.9126 46.9166C48.9126 45.7826 49.8351 44.86 50.9691 44.86C52.1031 44.86 53.0256 45.7826 53.0256 46.9166C53.0256 48.0506 52.1031 48.9732 50.9691 48.9732Z" fill="#FFBA00"/>
<path d="M38.7326 33.5968C38.7326 33.0791 38.3129 32.6592 37.795 32.6592H35.591C35.0733 32.6592 34.6534 33.0789 34.6534 33.5968C34.6534 34.1147 35.0731 34.5344 35.591 34.5344H37.795C38.3129 34.5344 38.7326 34.1147 38.7326 33.5968Z" fill="#FFBA00"/>
<path d="M18.2466 32.6592C17.7289 32.6592 17.309 33.0789 17.309 33.5968C17.309 34.1147 17.7288 34.5344 18.2466 34.5344H20.447C20.9648 34.5344 21.3846 34.1147 21.3846 33.5968C21.3846 33.0789 20.9649 32.6592 20.447 32.6592H18.2466Z" fill="#FFBA00"/>
</svg>
