<svg width="13" height="15" viewBox="0 0 13 15" fill="none" xmlns="http://www.w3.org/2000/svg">
<path fill-rule="evenodd" clip-rule="evenodd" d="M6.49994 0.416656H6.52358C9.8431 0.429701 12.5338 3.13805 12.5207 6.4533V6.51914C12.4759 8.88833 11.0516 10.8544 9.86487 12.0862C9.52713 12.4384 9.16762 12.7763 8.79692 13.0919C8.57487 13.2813 8.24149 13.2552 8.05179 13.0335C7.86208 12.8111 7.88883 12.4781 8.11088 12.2887C8.45421 11.9961 8.78822 11.6818 9.10232 11.3544C10.1584 10.2587 11.4248 8.52618 11.4634 6.49989C11.4739 3.71637 9.25657 1.48323 6.51922 1.47204H6.49994C3.77193 1.47204 1.5471 3.68345 1.53653 6.40982C1.58317 7.75654 2.03847 9.03679 2.85388 10.1108C3.80552 11.378 5.24914 12.7198 6.62123 13.613C6.86629 13.7721 6.93533 14.0988 6.77548 14.3435C6.67472 14.4988 6.50492 14.5833 6.33201 14.5833C6.23311 14.5833 6.1336 14.556 6.04403 14.4976C4.57491 13.5416 3.02866 12.1042 2.00923 10.7469C1.0632 9.50019 0.533891 8.01247 0.479156 6.44647C0.492218 3.0983 3.191 0.416656 6.49994 0.416656ZM5.26407 6.51834C5.26407 7.19729 5.81763 7.75076 6.49808 7.75076C7.17853 7.75076 7.73209 7.19729 7.73209 6.51834C7.73209 5.83876 7.17853 5.28529 6.49808 5.28529C6.20637 5.28529 5.9694 5.04924 5.9694 4.75791C5.9694 4.46595 6.20637 4.2299 6.49808 4.2299C7.76133 4.2299 8.78946 5.2561 8.78946 6.51834C8.78946 7.77996 7.76133 8.80615 6.49808 8.80615C5.23484 8.80615 4.2067 7.77996 4.2067 6.51834C4.2067 6.22638 4.44368 5.99033 4.73538 5.99033C5.02709 5.99033 5.26407 6.22638 5.26407 6.51834Z" fill="#200E32"/>
</svg>
